<svg xmlns="http://www.w3.org/2000/svg" width="24" height="24" viewBox="0 0 24 24">
  <path id="Icon_awesome-behance-square" data-name="Icon awesome-behance-square" d="M9.991,16.232c0,1.034-.75,1.361-1.671,1.361H5.9V14.759H8.368C9.364,14.764,9.991,15.177,9.991,16.232Zm-.413-4.409c0-.948-.734-1.173-1.548-1.173H5.909v2.4H8.2c.809,0,1.382-.354,1.382-1.227Zm7.087,1.243a1.6,1.6,0,0,0-1.7,1.591H18.3A1.527,1.527,0,0,0,16.666,13.066ZM24,4.821V23.679a2.572,2.572,0,0,1-2.571,2.571H2.571A2.572,2.572,0,0,1,0,23.679V4.821A2.572,2.572,0,0,1,2.571,2.25H21.429A2.572,2.572,0,0,1,24,4.821Zm-9.445,5.625h4.168V9.434H14.555Zm-2.3,5.909a2.663,2.663,0,0,0-1.875-2.764,2,2,0,0,0,1.4-1.982c0-2.046-1.527-2.545-3.289-2.545H3.643V19.35H8.63C10.5,19.339,12.252,18.445,12.252,16.355Zm8.105-.793c0-2.2-1.291-4.039-3.621-4.039a3.739,3.739,0,0,0-3.809,3.943,3.629,3.629,0,0,0,3.809,3.911,3.321,3.321,0,0,0,3.487-2.507H18.418a1.7,1.7,0,0,1-1.618.97,1.681,1.681,0,0,1-1.827-1.891h5.368C20.346,15.825,20.357,15.691,20.357,15.563Z" transform="translate(0 -2.25)" fill="#5a5a5a"/>
</svg>
