<svg xmlns="http://www.w3.org/2000/svg" width="24" height="24" viewBox="0 0 24 24">
  <path id="Icon_awesome-github-square" data-name="Icon awesome-github-square" d="M21.429,2.25H2.571A2.572,2.572,0,0,0,0,4.821V23.679A2.572,2.572,0,0,0,2.571,26.25H21.429A2.572,2.572,0,0,0,24,23.679V4.821A2.572,2.572,0,0,0,21.429,2.25ZM14.855,22.805c-.45.08-.616-.2-.616-.429,0-.289.011-1.768.011-2.962a2.087,2.087,0,0,0-.605-1.645c1.982-.22,4.071-.493,4.071-3.916a2.75,2.75,0,0,0-.916-2.089,3.35,3.35,0,0,0-.091-2.411c-.745-.23-2.448.959-2.448.959a8.428,8.428,0,0,0-4.457,0S8.1,9.123,7.355,9.354a3.325,3.325,0,0,0-.091,2.411,2.691,2.691,0,0,0-.836,2.089c0,3.407,2,3.7,3.98,3.916a1.942,1.942,0,0,0-.568,1.195,1.88,1.88,0,0,1-2.588-.745A1.866,1.866,0,0,0,5.887,17.3c-.868-.011-.059.546-.059.546.579.268.986,1.3.986,1.3C7.334,20.738,9.82,20.2,9.82,20.2c0,.745.011,1.955.011,2.175s-.161.509-.616.429A8.888,8.888,0,0,1,3.2,14.325a8.5,8.5,0,0,1,8.679-8.652,8.691,8.691,0,0,1,8.9,8.652A8.806,8.806,0,0,1,14.855,22.805ZM9.6,19.532c-.1.021-.2-.021-.209-.091s.059-.15.161-.171.2.032.209.1S9.707,19.511,9.6,19.532Zm-.509-.048c0,.07-.08.129-.187.129s-.2-.048-.2-.129.08-.129.188-.129S9.091,19.4,9.091,19.484Zm-.734-.059c-.021.07-.129.1-.22.07s-.171-.1-.15-.171.129-.1.22-.08C8.314,19.275,8.384,19.355,8.357,19.425ZM7.7,19.136c-.048.059-.15.048-.23-.032s-.1-.171-.048-.22.15-.048.23.032S7.746,19.093,7.7,19.136Zm-.488-.487c-.048.032-.139,0-.2-.08s-.059-.171,0-.209.15-.011.2.07A.157.157,0,0,1,7.211,18.648Zm-.348-.52c-.048.048-.129.021-.187-.032-.059-.07-.07-.15-.021-.187s.129-.021.188.032C6.9,18.011,6.911,18.091,6.862,18.129Zm-.359-.4a.1.1,0,0,1-.15.021c-.07-.032-.1-.091-.08-.139a.126.126,0,0,1,.15-.021C6.493,17.63,6.525,17.689,6.5,17.732Z" transform="translate(0 -2.25)" fill="#5a5a5a"/>
</svg>
