<svg xmlns="http://www.w3.org/2000/svg" width="23.406" height="23.406" viewBox="0 0 23.406 23.406">
  <path id="Icon_awesome-linkedin-in" data-name="Icon awesome-linkedin-in" d="M5.239,23.406H.387V7.78H5.239ZM2.81,5.648a2.824,2.824,0,1,1,2.81-2.837A2.834,2.834,0,0,1,2.81,5.648ZM23.4,23.406H18.559V15.8c0-1.813-.037-4.138-2.523-4.138-2.523,0-2.91,1.97-2.91,4.007v7.738H8.279V7.78h4.654V9.911H13a5.1,5.1,0,0,1,4.591-2.523c4.911,0,5.814,3.234,5.814,7.435v8.584Z" transform="translate(0 -0.001)" fill="#5a5a5a"/>
</svg>
