<svg xmlns="http://www.w3.org/2000/svg" width="24" height="23.027" viewBox="0 0 24 23.027">
  <path id="Icon_simple-mail-dot-ru" data-name="Icon simple-mail-dot-ru" d="M11.586,5.511a6.878,6.878,0,0,1,4.824,2.08v0a1,1,0,0,1,.979-1.068h.145a1.086,1.086,0,0,1,1.073,1.109l0,9.475a.614.614,0,0,0,1.029.543c1.521-1.564,3.342-8.038-.946-11.79A10.267,10.267,0,0,0,6.485,4.909,9.216,9.216,0,0,0,3.4,15.973c2.054,4.74,7.931,6.152,11.424,4.744,1.769-.715,2.586,1.676.749,2.457-2.776,1.184-10.5,1.064-14.11-5.188A11.438,11.438,0,0,1,5.62,2.489a12.622,12.622,0,0,1,15.4,1.979c4.111,4.294,3.872,12.334-.139,15.461a2.8,2.8,0,0,1-4.5-2.031l-.019-.678a6.745,6.745,0,0,1-4.782,1.988A7,7,0,0,1,4.771,12.4,7.039,7.039,0,0,1,11.586,5.511Zm4.561,6.623a4.317,4.317,0,0,0-4.484-4.249h-.09C8.828,7.885,7.3,10.044,7.3,12.5a4.175,4.175,0,0,0,4.256,4.481,4.467,4.467,0,0,0,4.592-4.306Z" transform="translate(-0.001 -0.731)" fill="#5a5a5a"/>
</svg>
