<svg xmlns="http://www.w3.org/2000/svg" width="53" height="14.999" viewBox="0 0 53 14.999">
  <g id="Group_147" data-name="Group 147" transform="translate(-4710 -5522.351)">
    <path id="Icon_ionic-ios-play" data-name="Icon ionic-ios-play" d="M9,7.139V21.36a.366.366,0,0,0,.548.337l11.272-7.11a.4.4,0,0,0,0-.67L9.548,6.807A.363.363,0,0,0,9,7.139Z" transform="translate(4721.5 5515.6)" fill="#5a5a5a"/>
    <path id="Icon_ionic-ios-play-2" data-name="Icon ionic-ios-play" d="M9,7.139V21.36a.366.366,0,0,0,.548.337l11.272-7.11a.4.4,0,0,0,0-.67L9.548,6.807A.363.363,0,0,0,9,7.139Z" transform="translate(4742 5515.6)" fill="#5a5a5a"/>
    <path id="Icon_ionic-ios-play-3" data-name="Icon ionic-ios-play" d="M9,7.139V21.36a.366.366,0,0,0,.548.337l11.272-7.11a.4.4,0,0,0,0-.67L9.548,6.807A.363.363,0,0,0,9,7.139Z" transform="translate(4701 5515.6)" fill="#5a5a5a"/>
  </g>
</svg>
